<svg width="97" height="41" viewBox="0 0 97 41" fill="none" xmlns="http://www.w3.org/2000/svg">
<path d="M52.0045 33.9038H48.0804V21.9106L43.3968 33.9038H40.1563L35.4727 22.0637V33.9038H31.6752V15.8119H36.8904L41.8272 28.0348L46.5108 15.8119H52.0045V33.9038Z" fill="#2A3540"/>
<path d="M54.3604 30.4079C54.3604 29.3362 54.7064 28.4771 55.3984 27.8307C56.0903 27.1672 56.9849 26.7504 58.0819 26.5803L61.044 26.121C61.6516 26.036 61.9554 25.7468 61.9554 25.2534C61.9554 24.8621 61.7866 24.5389 61.449 24.2838C61.1284 24.0116 60.6811 23.8755 60.1073 23.8755C59.4659 23.8755 58.9511 24.0626 58.5629 24.4369C58.1916 24.7941 57.9891 25.2279 57.9553 25.7382L54.6135 25.0493C54.6979 23.9946 55.2127 23.0334 56.1579 22.1658C57.1199 21.2812 58.4448 20.8389 60.1326 20.8389C62.0398 20.8389 63.4406 21.2982 64.3352 22.2168C65.2466 23.1355 65.7023 24.3093 65.7023 25.7382V31.939C65.7023 32.7385 65.7529 33.3935 65.8542 33.9038H62.3858C62.3014 33.5636 62.2592 33.0873 62.2592 32.4749C61.5334 33.6657 60.352 34.2611 58.7148 34.2611C57.3815 34.2611 56.3182 33.8868 55.5249 33.1383C54.7486 32.3728 54.3604 31.4627 54.3604 30.4079ZM59.6516 31.4542C60.3098 31.4542 60.8583 31.2585 61.2971 30.8673C61.736 30.476 61.9554 29.8296 61.9554 28.9279V28.3665L59.5756 28.7493C58.6305 28.9024 58.1579 29.3702 58.1579 30.1528C58.1579 30.51 58.276 30.8162 58.5123 31.0714C58.7655 31.3266 59.1452 31.4542 59.6516 31.4542Z" fill="#2A3540"/>
<path d="M72.282 33.9038H68.4339V15.4292H72.282V33.9038Z" fill="#2A3540"/>
<path d="M79.7791 17.5216V21.2217H82.2349V24.6155H79.7791V29.3617C79.7791 30.2463 80.2433 30.6886 81.1716 30.6886C81.4754 30.6886 81.8129 30.6461 82.1842 30.5611V33.7763C81.7117 34.0144 81.045 34.1335 80.1842 34.1335C78.8846 34.1335 77.8551 33.7678 77.0956 33.0362C76.3529 32.3047 75.9816 31.3096 75.9816 30.0507V24.6155H73.7538V21.2217H74.3867C75.028 21.2217 75.5091 21.0345 75.8297 20.6603C76.1673 20.269 76.3361 19.7672 76.3361 19.1547V17.5216H79.7791Z" fill="#2A3540"/>
<path d="M83.795 30.4079C83.795 29.3362 84.141 28.4771 84.833 27.8307C85.525 27.1672 86.4195 26.7504 87.5166 26.5803L90.4786 26.121C91.0862 26.036 91.39 25.7468 91.39 25.2534C91.39 24.8621 91.2212 24.5389 90.8837 24.2838C90.563 24.0116 90.1157 23.8755 89.5419 23.8755C88.9005 23.8755 88.3858 24.0626 87.9976 24.4369C87.6263 24.7941 87.4237 25.2279 87.39 25.7382L84.0482 25.0493C84.1326 23.9946 84.6473 23.0334 85.5925 22.1658C86.5545 21.2812 87.8794 20.8389 89.5672 20.8389C91.4744 20.8389 92.8753 21.2982 93.7698 22.2168C94.6812 23.1355 95.1369 24.3093 95.1369 25.7382V31.939C95.1369 32.7385 95.1875 33.3935 95.2888 33.9038H91.8204C91.736 33.5636 91.6938 33.0873 91.6938 32.4749C90.9681 33.6657 89.7866 34.2611 88.1495 34.2611C86.8161 34.2611 85.7528 33.8868 84.9596 33.1383C84.1832 32.3728 83.795 31.4627 83.795 30.4079ZM89.0862 31.4542C89.7444 31.4542 90.293 31.2585 90.7318 30.8673C91.1706 30.476 91.39 29.8296 91.39 28.9279V28.3665L89.0103 28.7493C88.0651 28.9024 87.5925 29.3702 87.5925 30.1528C87.5925 30.51 87.7107 30.8162 87.9469 31.0714C88.2001 31.3266 88.5799 31.4542 89.0862 31.4542Z" fill="#2A3540"/>
<g clip-path="url(#clip0_1_226)">
<path fill-rule="evenodd" clip-rule="evenodd" d="M12.125 25.4279C16.8125 25.4279 20.6125 21.6331 20.6125 16.9519C20.6125 16.7094 20.6023 16.4692 20.5823 16.2317C22.7396 17.1591 24.25 19.3011 24.25 21.7953V33.9038H9.09375C4.07141 33.9038 0 29.8379 0 24.8225V21.7953C0 19.3011 1.51042 17.1591 3.6677 16.2317C3.64771 16.4692 3.6375 16.7094 3.6375 16.9519C3.6375 21.6331 7.43749 25.4279 12.125 25.4279Z" fill="url(#paint0_linear_1_226)"/>
<path d="M10.4103 1.71241L5.26605 6.84962C4.31903 7.79535 4.31903 9.32869 5.26605 10.2744L10.4103 15.4116C11.3573 16.3574 12.8927 16.3574 13.8397 15.4116L18.9839 10.2744C19.9309 9.32869 19.9309 7.79535 18.9839 6.84962L13.8397 1.71241C12.8927 0.766673 11.3573 0.766673 10.4103 1.71241Z" fill="url(#paint1_linear_1_226)"/>
</g>
<defs>
<linearGradient id="paint0_linear_1_226" x1="15.7625" y1="33.9038" x2="15.7625" y2="15.7411" gradientUnits="userSpaceOnUse">
<stop stop-color="#7544FF"/>
<stop offset="1" stop-color="#35B6FF"/>
</linearGradient>
<linearGradient id="paint1_linear_1_226" x1="7.83815" y1="4.28101" x2="16.4002" y2="12.8547" gradientUnits="userSpaceOnUse">
<stop stop-color="#FF3FB2"/>
<stop offset="1" stop-color="#FFDD66"/>
</linearGradient>
<clipPath id="clip0_1_226">
<rect width="24.25" height="33.9038" fill="white"/>
</clipPath>
</defs>
</svg>
